{
  "accessors": [
    {
      "bufferView": 2,
      "componentType": 5126,
      "count": 65532,
      "max": [
        7.7797942161560059,
        5.1894040107727051,
        2.9961519241333008
      ],
      "min": [
        -7.7797942161560059,
        -3.3388679027557373,
        -9.3009300231933594
      ],
      "type": "VEC3"
    },
    {
      "bufferView": 2,
      "byteOffset": 786384,
      "componentType": 5126,
      "count": 65532,
      "max": [
        0.9999997615814209,
        0.9995536208152771,
        0.99999237060546875
      ],
      "min": [
        -0.99999958276748657,
        -1,
        -0.99999970197677612
      ],
      "type": "VEC3"
    },
    {
      "bufferView": 1,
      "componentType": 5126,
      "count": 65532,
      "max": [
        0.99823999404907227,
        0.99908900260925293
      ],
      "min": [
        0.0083219995722174644,
        0.00014400000509340316
      ],
      "type": "VEC2"
    },
    {
      "bufferView": 0,
      "componentType": 5125,
      "count": 344694,
      "max": [
        65531
      ],
      "min": [
        0
      ],
      "type": "SCALAR"
    },
    {
      "bufferView": 2,
      "byteOffset": 1572768,
      "componentType": 5126,
      "count": 65532,
      "max": [
        7.7797942161560059,
        5.1708488464355469,
        4.1746129989624023
      ],
      "min": [
        -7.7797927856445312,
        -3.5829780101776123,
        -9.3009300231933594
      ],
      "type": "VEC3"
    },
    {
      "bufferView": 2,
      "byteOffset": 2359152,
      "componentType": 5126,
      "count": 65532,
      "max": [
        0.99999910593032837,
        0.9995536208152771,
        0.99999779462814331
      ],
      "min": [
        -0.99999910593032837,
        -1,
        -0.99998897314071655
      ],
      "type": "VEC3"
    },
    {
      "bufferView": 1,
      "byteOffset": 524256,
      "componentType": 5126,
      "count": 65532,
      "max": [
        0.99907600879669189,
        0.99974697828292847
      ],
      "min": [
        0.0011010000016540289,
        0.00051300000632181764
      ],
      "type": "VEC2"
    },
    {
      "bufferView": 0,
      "byteOffset": 1378776,
      "componentType": 5125,
      "count": 310176,
      "max": [
        65531
      ],
      "min": [
        0
      ],
      "type": "SCALAR"
    },
    {
      "bufferView": 2,
      "byteOffset": 3145536,
      "componentType": 5126,
      "count": 65532,
      "max": [
        7.6430678367614746,
        5.2626018524169922,
        5.3815979957580566
      ],
      "min": [
        -7.7797927856445312,
        -5.2626028060913086,
        -7.5527338981628418
      ],
      "type": "VEC3"
    },
    {
      "bufferView": 2,
      "byteOffset": 3931920,
      "componentType": 5126,
      "count": 65532,
      "max": [
        0.99999970197677612,
        0.99998879432678223,
        0.99999791383743286
      ],
      "min": [
        -1,
        -0.99999982118606567,
        -0.99999946355819702
      ],
      "type": "VEC3"
    },
    {
      "bufferView": 1,
      "byteOffset": 1048512,
      "componentType": 5126,
      "count": 65532,
      "max": [
        0.99935001134872437,
        0.99824601411819458
      ],
      "min": [
        0.001104000024497509,
        4.9999998736893758e-06
      ],
      "type": "VEC2"
    },
    {
      "bufferView": 0,
      "byteOffset": 2619480,
      "componentType": 5125,
      "count": 315486,
      "max": [
        65531
      ],
      "min": [
        0
      ],
      "type": "SCALAR"
    },
    {
      "bufferView": 2,
      "byteOffset": 4718304,
      "componentType": 5126,
      "count": 65532,
      "max": [
        7.7797942161560059,
        5.2398738861083984,
        6.8014669418334961
      ],
      "min": [
        -7.5905938148498535,
        -5.2609400749206543,
        -2.1034209728240967
      ],
      "type": "VEC3"
    },
    {
      "bufferView": 2,
      "byteOffset": 5504688,
      "componentType": 5126,
      "count": 65532,
      "max": [
        0.99999988079071045,
        0.99999773502349854,
        0.99999958276748657
      ],
      "min": [
        -0.9999995231628418,
        -0.99999994039535522,
        -0.9999879002571106
      ],
      "type": "VEC3"
    },
    {
      "bufferView": 1,
      "byteOffset": 1572768,
      "componentType": 5126,
      "count": 65532,
      "max": [
        0.99779301881790161,
        0.99948602914810181
      ],
      "min": [
        0.00029399999766610563,
        0.00053100002696737647
      ],
      "type": "VEC2"
    },
    {
      "bufferView": 0,
      "byteOffset": 3881424,
      "componentType": 5125,
      "count": 305052,
      "max": [
        65531
      ],
      "min": [
        0
      ],
      "type": "SCALAR"
    },
    {
      "bufferView": 2,
      "byteOffset": 6291072,
      "componentType": 5126,
      "count": 65532,
      "max": [
        7.7797942161560059,
        5.2055568695068359,
        9.3009300231933594
      ],
      "min": [
        -7.7797927856445312,
        -5.2565121650695801,
        -0.94909697771072388
      ],
      "type": "VEC3"
    },
    {
      "bufferView": 2,
      "byteOffset": 7077456,
      "componentType": 5126,
      "count": 65532,
      "max": [
        0.99999940395355225,
        0.99994832277297974,
        0.99999970197677612
      ],
      "min": [
        -0.99999946355819702,
        -0.99999988079071045,
        -0.99992191791534424
      ],
      "type": "VEC3"
    },
    {
      "bufferView": 1,
      "byteOffset": 2097024,
      "componentType": 5126,
      "count": 65532,
      "max": [
        0.99998998641967773,
        0.99970400333404541
      ],
      "min": [
        1.9999999949504854e-06,
        0.00053100002696737647
      ],
      "type": "VEC2"
    },
    {
      "bufferView": 0,
      "byteOffset": 5101632,
      "componentType": 5125,
      "count": 302826,
      "max": [
        65531
      ],
      "min": [
        0
      ],
      "type": "SCALAR"
    },
    {
      "bufferView": 2,
      "byteOffset": 7863840,
      "componentType": 5126,
      "count": 49560,
      "max": [
        7.7797942161560059,
        5.1554980278015137,
        9.3009300231933594
      ],
      "min": [
        -7.7797927856445312,
        -5.2338981628417969,
        -9.3009281158447266
      ],
      "type": "VEC3"
    },
    {
      "bufferView": 2,
      "byteOffset": 8458560,
      "componentType": 5126,
      "count": 49560,
      "max": [
        0.99999469518661499,
        0.99986612796783447,
        0.99999737739562988
      ],
      "min": [
        -0.99999690055847168,
        -0.99999970197677612,
        -0.9999958872795105
      ],
      "type": "VEC3"
    },
    {
      "bufferView": 1,
      "byteOffset": 2621280,
      "componentType": 5126,
      "count": 49560,
      "max": [
        0.99909102916717529,
        0.99972599744796753
      ],
      "min": [
        0.00039599998854100704,
        0.00053499999921768904
      ],
      "type": "VEC2"
    },
    {
      "bufferView": 0,
      "byteOffset": 6312936,
      "componentType": 5125,
      "count": 251541,
      "max": [
        49559
      ],
      "min": [
        0
      ],
      "type": "SCALAR"
    }
  ],
  "asset": {
    "extras": {
      "author": "Spogna (https://sketchfab.com/spogna)",
      "license": "CC-BY-4.0 (http://creativecommons.org/licenses/by/4.0/)",
      "source": "https://sketchfab.com/3d-models/palletboxesforklift-rawscan-c2cf485ab7ca42c78807e72d8952cc5a",
      "title": "Pallet+Boxes+Forklift  .::RAWscan::."
    },
    "generator": "Sketchfab-8.77.2",
    "version": "2.0"
  },
  "bufferViews": [
    {
      "buffer": 0,
      "byteLength": 7319100,
      "byteOffset": 0,
      "name": "floatBufferViews",
      "target": 34963
    },
    {
      "buffer": 0,
      "byteLength": 3017760,
      "byteOffset": 7319100,
      "byteStride": 8,
      "name": "floatBufferViews",
      "target": 34962
    },
    {
      "buffer": 0,
      "byteLength": 9053280,
      "byteOffset": 10336860,
      "byteStride": 12,
      "name": "floatBufferViews",
      "target": 34962
    }
  ],
  "buffers": [
    {
      "byteLength": 19390140,
      "uri": "scene.bin"
    }
  ],
  "extensionsUsed": [
    "KHR_materials_unlit"
  ],
  "images": [
    {
      "uri": "textures/pallet_baseColor.jpeg"
    }
  ],
  "materials": [
    {
      "doubleSided": true,
      "extensions": {
        "KHR_materials_unlit": {}
      },
      "name": "pallet",
      "pbrMetallicRoughness": {
        "baseColorFactor": [
          1,
          1,
          1,
          1
        ],
        "baseColorTexture": {
          "index": 0,
          "texCoord": 0
        },
        "metallicFactor": 0,
        "roughnessFactor": 1
      }
    }
  ],
  "meshes": [
    {
      "primitives": [
        {
          "attributes": {
            "NORMAL": 1,
            "POSITION": 0,
            "TEXCOORD_0": 2
          },
          "indices": 3,
          "material": 0,
          "mode": 4
        }
      ]
    },
    {
      "primitives": [
        {
          "attributes": {
            "NORMAL": 5,
            "POSITION": 4,
            "TEXCOORD_0": 6
          },
          "indices": 7,
          "material": 0,
          "mode": 4
        }
      ]
    },
    {
      "primitives": [
        {
          "attributes": {
            "NORMAL": 9,
            "POSITION": 8,
            "TEXCOORD_0": 10
          },
          "indices": 11,
          "material": 0,
          "mode": 4
        }
      ]
    },
    {
      "primitives": [
        {
          "attributes": {
            "NORMAL": 13,
            "POSITION": 12,
            "TEXCOORD_0": 14
          },
          "indices": 15,
          "material": 0,
          "mode": 4
        }
      ]
    },
    {
      "primitives": [
        {
          "attributes": {
            "NORMAL": 17,
            "POSITION": 16,
            "TEXCOORD_0": 18
          },
          "indices": 19,
          "material": 0,
          "mode": 4
        }
      ]
    },
    {
      "primitives": [
        {
          "attributes": {
            "NORMAL": 21,
            "POSITION": 20,
            "TEXCOORD_0": 22
          },
          "indices": 23,
          "material": 0,
          "mode": 4
        }
      ]
    }
  ],
  "nodes": [
    {
      "children": [
        1
      ],
      "name": "RootNode (gltf orientation matrix)",
      "rotation": [
        -0.70710678118654746,
        -0,
        -0,
        0.70710678118654757
      ]
    },
    {
      "children": [
        2
      ],
      "matrix": [
        1,
        0,
        0,
        0,
        0,
        2.2204460492503131e-16,
        -1,
        0,
        0,
        1,
        2.2204460492503131e-16,
        0,
        0,
        9.5367431640625e-06,
        9.5367431640625e-06,
        1
      ],
      "name": "RootNode (model correction matrix)"
    },
    {
      "children": [
        3,
        4,
        5,
        6,
        7,
        8
      ],
      "name": "pallet.obj.cleaner.materialmerger.gles"
    },
    {
      "mesh": 0,
      "name": ""
    },
    {
      "mesh": 1,
      "name": ""
    },
    {
      "mesh": 2,
      "name": ""
    },
    {
      "mesh": 3,
      "name": ""
    },
    {
      "mesh": 4,
      "name": ""
    },
    {
      "mesh": 5,
      "name": ""
    }
  ],
  "samplers": [
    {
      "magFilter": 9729,
      "minFilter": 9987,
      "wrapS": 10497,
      "wrapT": 10497
    }
  ],
  "scene": 0,
  "scenes": [
    {
      "name": "OSG_Scene",
      "nodes": [
        0
      ]
    }
  ],
  "textures": [
    {
      "sampler": 0,
      "source": 0
    }
  ]
}

