{"asset":{"version":"2.0","generator":"babylon.js glTF exporter for Maya 2018 v20210115.1"},"scene":0,"scenes":[{"nodes":[0,1]}],"nodes":[{"name":"human:humanBody_1"},{"mesh":0,"name":"pasted__pasted__pasted__polySurface2"}],"meshes":[{"primitives":[{"attributes":{"POSITION":1,"TANGENT":2,"NORMAL":3,"TEXCOORD_0":4},"indices":0,"material":0},{"attributes":{"POSITION":6,"TANGENT":7,"NORMAL":8,"TEXCOORD_0":9},"indices":5,"material":1},{"attributes":{"POSITION":11,"TANGENT":12,"NORMAL":13,"TEXCOORD_0":14},"indices":10,"material":2},{"attributes":{"POSITION":16,"TANGENT":17,"NORMAL":18,"TEXCOORD_0":19},"indices":15,"material":3},{"attributes":{"POSITION":21,"TANGENT":22,"NORMAL":23,"TEXCOORD_0":24},"indices":20,"material":4},{"attributes":{"POSITION":26,"TANGENT":27,"NORMAL":28,"TEXCOORD_0":29},"indices":25,"material":5},{"attributes":{"POSITION":31,"TANGENT":32,"NORMAL":33,"TEXCOORD_0":34},"indices":30,"material":6},{"attributes":{"POSITION":36,"TANGENT":37,"NORMAL":38,"TEXCOORD_0":39},"indices":35,"material":7},{"attributes":{"POSITION":41,"TANGENT":42,"NORMAL":43,"TEXCOORD_0":44},"indices":40,"material":8},{"attributes":{"POSITION":46,"TANGENT":47,"NORMAL":48,"TEXCOORD_0":49},"indices":45,"material":9},{"attributes":{"POSITION":51,"TANGENT":52,"NORMAL":53,"TEXCOORD_0":54},"indices":50,"material":10},{"attributes":{"POSITION":56,"TANGENT":57,"NORMAL":58,"TEXCOORD_0":59},"indices":55,"material":11},{"attributes":{"POSITION":61,"TANGENT":62,"NORMAL":63,"TEXCOORD_0":64},"indices":60,"material":12},{"attributes":{"POSITION":66,"TANGENT":67,"NORMAL":68,"TEXCOORD_0":69},"indices":65,"material":13},{"attributes":{"POSITION":71,"TANGENT":72,"NORMAL":73,"TEXCOORD_0":74},"indices":70,"material":14},{"attributes":{"POSITION":76,"TANGENT":77,"NORMAL":78,"TEXCOORD_0":79},"indices":75,"material":15},{"attributes":{"POSITION":81,"TANGENT":82,"NORMAL":83,"TEXCOORD_0":84},"indices":80,"material":16},{"attributes":{"POSITION":86,"TANGENT":87,"NORMAL":88,"TEXCOORD_0":89},"indices":85,"material":17},{"attributes":{"POSITION":91,"TANGENT":92,"NORMAL":93,"TEXCOORD_0":94},"indices":90,"material":18},{"attributes":{"POSITION":96,"TANGENT":97,"NORMAL":98,"TEXCOORD_0":99},"indices":95,"material":19},{"attributes":{"POSITION":101,"TANGENT":102,"NORMAL":103,"TEXCOORD_0":104},"indices":100,"material":20},{"attributes":{"POSITION":106,"TANGENT":107,"NORMAL":108,"TEXCOORD_0":109},"indices":105,"material":21},{"attributes":{"POSITION":111,"TANGENT":112,"NORMAL":113,"TEXCOORD_0":114},"indices":110,"material":22},{"attributes":{"POSITION":116,"TANGENT":117,"NORMAL":118,"TEXCOORD_0":119},"indices":115,"material":23}],"name":"pasted__pasted__pasted__polySurface2"}],"accessors":[{"bufferView":0,"componentType":5123,"count":33948,"type":"SCALAR","name":"accessorIndices"},{"bufferView":1,"componentType":5126,"count":5799,"max":[0.0923793837,0.34351778,0.02939205],"min":[-0.09252505,0.124493673,-0.0142199071],"type":"VEC3","name":"accessorPositions"},{"bufferView":2,"componentType":5126,"count":5799,"type":"VEC4","name":"accessorTangents"},{"bufferView":1,"byteOffset":69588,"componentType":5126,"count":5799,"type":"VEC3","name":"accessorNormals"},{"bufferView":3,"componentType":5126,"count":5799,"type":"VEC2","name":"accessorUVs"},{"bufferView":0,"byteOffset":67896,"componentType":5123,"count":2280,"type":"SCALAR","name":"accessorIndices"},{"bufferView":1,"byteOffset":139176,"componentType":5126,"count":439,"max":[-0.0179609042,0.0697288,-0.0106718158],"min":[-0.0299609061,0.0577288046,-0.02267182],"type":"VEC3","name":"accessorPositions"},{"bufferView":2,"byteOffset":92784,"componentType":5126,"count":439,"type":"VEC4","name":"accessorTangents"},{"bufferView":1,"byteOffset":144444,"componentType":5126,"count":439,"type":"VEC3","name":"accessorNormals"},{"bufferView":3,"byteOffset":46392,"componentType":5126,"count":439,"type":"VEC2","name":"accessorUVs"},{"bufferView":0,"byteOffset":72456,"componentType":5123,"count":2280,"type":"SCALAR","name":"accessorIndices"},{"bufferView":1,"byteOffset":149712,"componentType":5126,"count":439,"max":[-0.0141923819,0.0687247142,-0.00375711429],"min":[-0.0261923838,0.0567247123,-0.0157571174],"type":"VEC3","name":"accessorPositions"},{"bufferView":2,"byteOffset":99808,"componentType":5126,"count":439,"type":"VEC4","name":"accessorTangents"},{"bufferView":1,"byteOffset":154980,"componentType":5126,"count":439,"type":"VEC3","name":"accessorNormals"},{"bufferView":3,"byteOffset":49904,"componentType":5126,"count":439,"type":"VEC2","name":"accessorUVs"},{"bufferView":0,"byteOffset":77016,"componentType":5123,"count":2280,"type":"SCALAR","name":"accessorIndices"},{"bufferView":1,"byteOffset":160248,"componentType":5126,"count":439,"max":[-0.0220832,0.07188383,-0.0106718158],"min":[-0.0340832025,0.0598838255,-0.02267182],"type":"VEC3","name":"accessorPositions"},{"bufferView":2,"byteOffset":106832,"componentType":5126,"count":439,"type":"VEC4","name":"accessorTangents"},{"bufferView":1,"byteOffset":165516,"componentType":5126,"count":439,"type":"VEC3","name":"accessorNormals"},{"bufferView":3,"byteOffset":53416,"componentType":5126,"count":439,"type":"VEC2","name":"accessorUVs"},{"bufferView":0,"byteOffset":81576,"componentType":5123,"count":29640,"type":"SCALAR","name":"accessorIndices"},{"bufferView":1,"byteOffset":170784,"componentType":5126,"count":5707,"max":[0.08595253,0.308036119,0.01583492],"min":[-0.0213170666,0.16702199,-0.0175591912],"type":"VEC3","name":"accessorPositions"},{"bufferView":2,"byteOffset":113856,"componentType":5126,"count":5707,"type":"VEC4","name":"accessorTangents"},{"bufferView":1,"byteOffset":239268,"componentType":5126,"count":5707,"type":"VEC3","name":"accessorNormals"},{"bufferView":3,"byteOffset":56928,"componentType":5126,"count":5707,"type":"VEC2","name":"accessorUVs"},{"bufferView":0,"byteOffset":140856,"componentType":5123,"count":2280,"type":"SCALAR","name":"accessorIndices"},{"bufferView":1,"byteOffset":307752,"componentType":5126,"count":439,"max":[-0.0141923819,0.072748214,-0.005150072],"min":[-0.0261923838,0.06074822,-0.0171500742],"type":"VEC3","name":"accessorPositions"},{"bufferView":2,"byteOffset":205168,"componentType":5126,"count":439,"type":"VEC4","name":"accessorTangents"},{"bufferView":1,"byteOffset":313020,"componentType":5126,"count":439,"type":"VEC3","name":"accessorNormals"},{"bufferView":3,"byteOffset":102584,"componentType":5126,"count":439,"type":"VEC2","name":"accessorUVs"},{"bufferView":0,"byteOffset":145416,"componentType":5123,"count":2280,"type":"SCALAR","name":"accessorIndices"},{"bufferView":1,"byteOffset":318288,"componentType":5126,"count":439,"max":[-0.0220832,0.06972471,-0.0106718158],"min":[-0.0340832025,0.0577247143,-0.02267182],"type":"VEC3","name":"accessorPositions"},{"bufferView":2,"byteOffset":212192,"componentType":5126,"count":439,"type":"VEC4","name":"accessorTangents"},{"bufferView":1,"byteOffset":323556,"componentType":5126,"count":439,"type":"VEC3","name":"accessorNormals"},{"bufferView":3,"byteOffset":106096,"componentType":5126,"count":439,"type":"VEC2","name":"accessorUVs"},{"bufferView":0,"byteOffset":149976,"componentType":5123,"count":2280,"type":"SCALAR","name":"accessorIndices"},{"bufferView":1,"byteOffset":328824,"componentType":5126,"count":439,"max":[-0.0152797895,0.06848965,-0.00715943752],"min":[-0.02727979,0.0564896464,-0.01915944],"type":"VEC3","name":"accessorPositions"},{"bufferView":2,"byteOffset":219216,"componentType":5126,"count":439,"type":"VEC4","name":"accessorTangents"},{"bufferView":1,"byteOffset":334092,"componentType":5126,"count":439,"type":"VEC3","name":"accessorNormals"},{"bufferView":3,"byteOffset":109608,"componentType":5126,"count":439,"type":"VEC2","name":"accessorUVs"},{"bufferView":0,"byteOffset":154536,"componentType":5123,"count":2280,"type":"SCALAR","name":"accessorIndices"},{"bufferView":1,"byteOffset":339360,"componentType":5126,"count":439,"max":[-0.0259602629,0.0795394555,-0.00354996067],"min":[-0.0379602648,0.06753945,-0.0155499643],"type":"VEC3","name":"accessorPositions"},{"bufferView":2,"byteOffset":226240,"componentType":5126,"count":439,"type":"VEC4","name":"accessorTangents"},{"bufferView":1,"byteOffset":344628,"componentType":5126,"count":439,"type":"VEC3","name":"accessorNormals"},{"bufferView":3,"byteOffset":113120,"componentType":5126,"count":439,"type":"VEC2","name":"accessorUVs"},{"bufferView":0,"byteOffset":159096,"componentType":5123,"count":2280,"type":"SCALAR","name":"accessorIndices"},{"bufferView":1,"byteOffset":349896,"componentType":5126,"count":439,"max":[-0.0249314345,0.0795394555,-0.00702321343],"min":[-0.0369314365,0.06753945,-0.0190232173],"type":"VEC3","name":"accessorPositions"},{"bufferView":2,"byteOffset":233264,"componentType":5126,"count":439,"type":"VEC4","name":"accessorTangents"},{"bufferView":1,"byteOffset":355164,"componentType":5126,"count":439,"type":"VEC3","name":"accessorNormals"},{"bufferView":3,"byteOffset":116632,"componentType":5126,"count":439,"type":"VEC2","name":"accessorUVs"},{"bufferView":0,"byteOffset":163656,"componentType":5123,"count":2280,"type":"SCALAR","name":"accessorIndices"},{"bufferView":1,"byteOffset":360432,"componentType":5126,"count":439,"max":[-0.0203059278,0.0718058348,-0.00068098784],"min":[-0.0403059274,0.0518058352,-0.0206809938],"type":"VEC3","name":"accessorPositions"},{"bufferView":2,"byteOffset":240288,"componentType":5126,"count":439,"type":"VEC4","name":"accessorTangents"},{"bufferView":1,"byteOffset":365700,"componentType":5126,"count":439,"type":"VEC3","name":"accessorNormals"},{"bufferView":3,"byteOffset":120144,"componentType":5126,"count":439,"type":"VEC2","name":"accessorUVs"},{"bufferView":0,"byteOffset":168216,"componentType":5123,"count":2280,"type":"SCALAR","name":"accessorIndices"},{"bufferView":1,"byteOffset":370968,"componentType":5126,"count":439,"max":[-0.0194407515,0.0767482147,-0.0003774309],"min":[-0.03944075,0.05674822,-0.0203774348],"type":"VEC3","name":"accessorPositions"},{"bufferView":2,"byteOffset":247312,"componentType":5126,"count":439,"type":"VEC4","name":"accessorTangents"},{"bufferView":1,"byteOffset":376236,"componentType":5126,"count":439,"type":"VEC3","name":"accessorNormals"},{"bufferView":3,"byteOffset":123656,"componentType":5126,"count":439,"type":"VEC2","name":"accessorUVs"},{"bufferView":0,"byteOffset":172776,"componentType":5123,"count":2280,"type":"SCALAR","name":"accessorIndices"},{"bufferView":1,"byteOffset":381504,"componentType":5126,"count":439,"max":[-0.0151234418,0.07188383,-0.00715943752],"min":[-0.0271234438,0.0598838255,-0.01915944],"type":"VEC3","name":"accessorPositions"},{"bufferView":2,"byteOffset":254336,"componentType":5126,"count":439,"type":"VEC4","name":"accessorTangents"},{"bufferView":1,"byteOffset":386772,"componentType":5126,"count":439,"type":"VEC3","name":"accessorNormals"},{"bufferView":3,"byteOffset":127168,"componentType":5126,"count":439,"type":"VEC2","name":"accessorUVs"},{"bufferView":0,"byteOffset":177336,"componentType":5123,"count":2280,"type":"SCALAR","name":"accessorIndices"},{"bufferView":1,"byteOffset":392040,"componentType":5126,"count":439,"max":[-0.0203059278,0.0767482147,0.00226458674],"min":[-0.0403059274,0.05674822,-0.01773542],"type":"VEC3","name":"accessorPositions"},{"bufferView":2,"byteOffset":261360,"componentType":5126,"count":439,"type":"VEC4","name":"accessorTangents"},{"bufferView":1,"byteOffset":397308,"componentType":5126,"count":439,"type":"VEC3","name":"accessorNormals"},{"bufferView":3,"byteOffset":130680,"componentType":5126,"count":439,"type":"VEC2","name":"accessorUVs"},{"bufferView":0,"byteOffset":181896,"componentType":5123,"count":2280,"type":"SCALAR","name":"accessorIndices"},{"bufferView":1,"byteOffset":402576,"componentType":5126,"count":439,"max":[-0.0141923819,0.072748214,-0.00375711429],"min":[-0.0261923838,0.06074822,-0.0157571174],"type":"VEC3","name":"accessorPositions"},{"bufferView":2,"byteOffset":268384,"componentType":5126,"count":439,"type":"VEC4","name":"accessorTangents"},{"bufferView":1,"byteOffset":407844,"componentType":5126,"count":439,"type":"VEC3","name":"accessorNormals"},{"bufferView":3,"byteOffset":134192,"componentType":5126,"count":439,"type":"VEC2","name":"accessorUVs"},{"bufferView":0,"byteOffset":186456,"componentType":5123,"count":22800,"type":"SCALAR","name":"accessorIndices"},{"bufferView":1,"byteOffset":413112,"componentType":5126,"count":4390,"max":[0.0212197341,0.180099934,0.0186482649],"min":[-0.0185964573,0.1236918,-0.0123658562],"type":"VEC3","name":"accessorPositions"},{"bufferView":2,"byteOffset":275408,"componentType":5126,"count":4390,"type":"VEC4","name":"accessorTangents"},{"bufferView":1,"byteOffset":465792,"componentType":5126,"count":4390,"type":"VEC3","name":"accessorNormals"},{"bufferView":3,"byteOffset":137704,"componentType":5126,"count":4390,"type":"VEC2","name":"accessorUVs"},{"bufferView":0,"byteOffset":232056,"componentType":5123,"count":2280,"type":"SCALAR","name":"accessorIndices"},{"bufferView":1,"byteOffset":518472,"componentType":5126,"count":439,"max":[-0.07560241,0.178557083,0.0136429649],"min":[-0.08560242,0.168557093,0.00364296255],"type":"VEC3","name":"accessorPositions"},{"bufferView":2,"byteOffset":345648,"componentType":5126,"count":439,"type":"VEC4","name":"accessorTangents"},{"bufferView":1,"byteOffset":523740,"componentType":5126,"count":439,"type":"VEC3","name":"accessorNormals"},{"bufferView":3,"byteOffset":172824,"componentType":5126,"count":439,"type":"VEC2","name":"accessorUVs"},{"bufferView":0,"byteOffset":236616,"componentType":5123,"count":2280,"type":"SCALAR","name":"accessorIndices"},{"bufferView":1,"byteOffset":529008,"componentType":5126,"count":439,"max":[-0.07812066,0.179264173,0.009431324],"min":[-0.08812066,0.169264182,-0.000568678952],"type":"VEC3","name":"accessorPositions"},{"bufferView":2,"byteOffset":352672,"componentType":5126,"count":439,"type":"VEC4","name":"accessorTangents"},{"bufferView":1,"byteOffset":534276,"componentType":5126,"count":439,"type":"VEC3","name":"accessorNormals"},{"bufferView":3,"byteOffset":176336,"componentType":5126,"count":439,"type":"VEC2","name":"accessorUVs"},{"bufferView":0,"byteOffset":241176,"componentType":5123,"count":2280,"type":"SCALAR","name":"accessorIndices"},{"bufferView":1,"byteOffset":539544,"componentType":5126,"count":439,"max":[-0.0769085661,0.18132247,0.0136429649],"min":[-0.086908564,0.17132248,0.00364296255],"type":"VEC3","name":"accessorPositions"},{"bufferView":2,"byteOffset":359696,"componentType":5126,"count":439,"type":"VEC4","name":"accessorTangents"},{"bufferView":1,"byteOffset":544812,"componentType":5126,"count":439,"type":"VEC3","name":"accessorNormals"},{"bufferView":3,"byteOffset":179848,"componentType":5126,"count":439,"type":"VEC2","name":"accessorUVs"},{"bufferView":0,"byteOffset":245736,"componentType":5123,"count":288,"type":"SCALAR","name":"accessorIndices"},{"bufferView":1,"byteOffset":550080,"componentType":5126,"count":61,"max":[0.08,0.0009149736,0.08],"min":[-0.08,0.0009149736,-0.08],"type":"VEC3","name":"accessorPositions"},{"bufferView":2,"byteOffset":366720,"componentType":5126,"count":61,"type":"VEC4","name":"accessorTangents"},{"bufferView":1,"byteOffset":550812,"componentType":5126,"count":61,"type":"VEC3","name":"accessorNormals"},{"bufferView":3,"byteOffset":183360,"componentType":5126,"count":61,"type":"VEC2","name":"accessorUVs"},{"bufferView":0,"byteOffset":246312,"componentType":5123,"count":2280,"type":"SCALAR","name":"accessorIndices"},{"bufferView":1,"byteOffset":551544,"componentType":5126,"count":439,"max":[-0.0249314345,0.08024985,0.00206155377],"min":[-0.0369314365,0.06824985,-0.00993845],"type":"VEC3","name":"accessorPositions"},{"bufferView":2,"byteOffset":367696,"componentType":5126,"count":439,"type":"VEC4","name":"accessorTangents"},{"bufferView":1,"byteOffset":556812,"componentType":5126,"count":439,"type":"VEC3","name":"accessorNormals"},{"bufferView":3,"byteOffset":183848,"componentType":5126,"count":439,"type":"VEC2","name":"accessorUVs"},{"bufferView":0,"byteOffset":250872,"componentType":5123,"count":2280,"type":"SCALAR","name":"accessorIndices"},{"bufferView":1,"byteOffset":562080,"componentType":5126,"count":439,"max":[-0.0179609042,0.07188383,-0.0106718158],"min":[-0.0299609061,0.0598838255,-0.02267182],"type":"VEC3","name":"accessorPositions"},{"bufferView":2,"byteOffset":374720,"componentType":5126,"count":439,"type":"VEC4","name":"accessorTangents"},{"bufferView":1,"byteOffset":567348,"componentType":5126,"count":439,"type":"VEC3","name":"accessorNormals"},{"bufferView":3,"byteOffset":187360,"componentType":5126,"count":439,"type":"VEC2","name":"accessorUVs"},{"bufferView":0,"byteOffset":255432,"componentType":5123,"count":2280,"type":"SCALAR","name":"accessorIndices"},{"bufferView":1,"byteOffset":572616,"componentType":5126,"count":439,"max":[-0.0721022561,0.1759056,0.0103631327],"min":[-0.08210226,0.16590561,0.000363130559],"type":"VEC3","name":"accessorPositions"},{"bufferView":2,"byteOffset":381744,"componentType":5126,"count":439,"type":"VEC4","name":"accessorTangents"},{"bufferView":1,"byteOffset":577884,"componentType":5126,"count":439,"type":"VEC3","name":"accessorNormals"},{"bufferView":3,"byteOffset":190872,"componentType":5126,"count":439,"type":"VEC2","name":"accessorUVs"},{"bufferView":0,"byteOffset":259992,"componentType":5123,"count":37956,"type":"SCALAR","name":"accessorIndices"},{"bufferView":1,"byteOffset":583152,"componentType":5126,"count":7157,"max":[0.0914997756,0.297350258,0.03253087],"min":[-0.0914997756,-0.00074606,-0.02473139],"type":"VEC3","name":"accessorPositions"},{"bufferView":2,"byteOffset":388768,"componentType":5126,"count":7157,"type":"VEC4","name":"accessorTangents"},{"bufferView":1,"byteOffset":669036,"componentType":5126,"count":7157,"type":"VEC3","name":"accessorNormals"},{"bufferView":3,"byteOffset":194384,"componentType":5126,"count":7157,"type":"VEC2","name":"accessorUVs"}],"bufferViews":[{"buffer":0,"byteLength":335904,"name":"bufferViewScalar"},{"buffer":0,"byteOffset":335904,"byteLength":754920,"byteStride":12,"name":"bufferViewFloatVec3"},{"buffer":0,"byteOffset":1090824,"byteLength":503280,"byteStride":16,"name":"bufferViewFloatVec4"},{"buffer":0,"byteOffset":1594104,"byteLength":251640,"byteStride":8,"name":"bufferViewFloatVec2"}],"buffers":[{"uri":"hooman.bin","byteLength":1845744}],"materials":[{"pbrMetallicRoughness":{"baseColorFactor":[1.0,0.3275,0.0,1.0],"metallicFactor":0.0,"roughnessFactor":0.450053632},"name":"hoofd2"},{"pbrMetallicRoughness":{"baseColorFactor":[0.7604,0.711,0.0894,1.0],"metallicFactor":0.0,"roughnessFactor":0.450053632},"name":"pasted__pasted__pasted__pasted__pasted__pasted__pasted__lambert7"},{"pbrMetallicRoughness":{"baseColorFactor":[0.7604,0.711,0.0894,1.0],"metallicFactor":0.0,"roughnessFactor":0.450053632},"name":"pasted__pasted__pasted__pasted__pasted__lambert7"},{"pbrMetallicRoughness":{"baseColorFactor":[0.7604,0.711,0.0894,1.0],"metallicFactor":0.0,"roughnessFactor":0.450053632},"name":"pasted__pasted__pasted__pasted__pasted__pasted__pasted__lambert6"},{"pbrMetallicRoughness":{"metallicFactor":0.0,"roughnessFactor":0.450053632},"name":"purr"},{"pbrMetallicRoughness":{"baseColorFactor":[0.7604,0.711,0.0894,1.0],"metallicFactor":0.0,"roughnessFactor":0.450053632},"name":"pasted__pasted__pasted__lambert6"},{"pbrMetallicRoughness":{"baseColorFactor":[0.7604,0.711,0.0894,1.0],"metallicFactor":0.0,"roughnessFactor":0.450053632},"name":"pasted__pasted__pasted__pasted__pasted__pasted__pasted__pasted__lambert6"},{"pbrMetallicRoughness":{"baseColorFactor":[0.7604,0.711,0.0894,1.0],"metallicFactor":0.0,"roughnessFactor":0.450053632},"name":"pasted__pasted__pasted__pasted__lambert6"},{"pbrMetallicRoughness":{"baseColorFactor":[0.7604,0.711,0.0894,1.0],"metallicFactor":0.0,"roughnessFactor":0.450053632},"name":"pasted__pasted__pasted__pasted__lambert5"},{"pbrMetallicRoughness":{"baseColorFactor":[0.7604,0.711,0.0894,1.0],"metallicFactor":0.0,"roughnessFactor":0.450053632},"name":"pasted__pasted__pasted__pasted__pasted__lambert5"},{"pbrMetallicRoughness":{"baseColorFactor":[0.7604,0.711,0.0894,1.0],"metallicFactor":0.0,"roughnessFactor":0.450053632},"name":"pasted__lambert5"},{"pbrMetallicRoughness":{"baseColorFactor":[0.7604,0.711,0.0894,1.0],"metallicFactor":0.0,"roughnessFactor":0.450053632},"name":"pasted__pasted__pasted__lambert5"},{"pbrMetallicRoughness":{"baseColorFactor":[0.7604,0.711,0.0894,1.0],"metallicFactor":0.0,"roughnessFactor":0.450053632},"name":"pasted__pasted__pasted__pasted__pasted__lambert6"},{"pbrMetallicRoughness":{"baseColorFactor":[0.7604,0.711,0.0894,1.0],"metallicFactor":0.0,"roughnessFactor":0.450053632},"name":"pasted__pasted__lambert5"},{"pbrMetallicRoughness":{"baseColorFactor":[0.7604,0.711,0.0894,1.0],"metallicFactor":0.0,"roughnessFactor":0.450053632},"name":"pasted__pasted__pasted__pasted__lambert7"},{"pbrMetallicRoughness":{"baseColorFactor":[0.7604,0.711,0.0894,1.0],"metallicFactor":0.0,"roughnessFactor":0.450053632},"name":"lambert5"},{"pbrMetallicRoughness":{"metallicFactor":0.0,"roughnessFactor":0.450053632},"name":"pasted__pasted__purr"},{"pbrMetallicRoughness":{"metallicFactor":0.0,"roughnessFactor":0.450053632},"name":"pasted__purr"},{"pbrMetallicRoughness":{"metallicFactor":0.0,"roughnessFactor":0.450053632},"name":"pasted__pasted__pasted__purr"},{"pbrMetallicRoughness":{"baseColorFactor":[0.5,0.5,0.5,1.0],"metallicFactor":0.0,"roughnessFactor":0.450053632},"name":"lambert1"},{"pbrMetallicRoughness":{"baseColorFactor":[0.7604,0.711,0.0894,1.0],"metallicFactor":0.0,"roughnessFactor":0.450053632},"name":"pasted__pasted__pasted__pasted__pasted__pasted__lambert5"},{"pbrMetallicRoughness":{"baseColorFactor":[0.7604,0.711,0.0894,1.0],"metallicFactor":0.0,"roughnessFactor":0.450053632},"name":"pasted__pasted__pasted__pasted__pasted__pasted__lambert6"},{"pbrMetallicRoughness":{"metallicFactor":0.0,"roughnessFactor":0.450053632},"name":"pasted__pasted__pasted__pasted__purr"},{"pbrMetallicRoughness":{"baseColorFactor":[0.1288,0.4107,0.3972,1.0],"metallicFactor":0.0,"roughnessFactor":0.450053632},"name":"lambert2"}]}