{
  "accessors": [
    {
      "bufferView": 2,
      "componentType": 5126,
      "count": 757,
      "max": [
        0.65761202573776245,
        0.026388999074697495,
        0.87569397687911987
      ],
      "min": [
        -0.64579600095748901,
        -0.005439000204205513,
        0.0026239999569952488
      ],
      "type": "VEC3"
    },
    {
      "bufferView": 2,
      "byteOffset": 9084,
      "componentType": 5126,
      "count": 757,
      "max": [
        1,
        1,
        0.99856871366500854
      ],
      "min": [
        -1,
        -1,
        -0.99982327222824097
      ],
      "type": "VEC3"
    },
    {
      "bufferView": 3,
      "componentType": 5126,
      "count": 757,
      "max": [
        1,
        0.99996554851531982,
        0.99999016523361206,
        1
      ],
      "min": [
        -1,
        -1,
        -0.99999105930328369,
        1
      ],
      "type": "VEC4"
    },
    {
      "bufferView": 1,
      "componentType": 5126,
      "count": 757,
      "max": [
        0.95430099964141846,
        0.94779199361801147
      ],
      "min": [
        0.06518399715423584,
        0.047589998692274094
      ],
      "type": "VEC2"
    },
    {
      "bufferView": 0,
      "componentType": 5125,
      "count": 4026,
      "max": [
        756
      ],
      "min": [
        0
      ],
      "type": "SCALAR"
    }
  ],
  "asset": {
    "extras": {
      "author": "Heledahn (https://sketchfab.com/heledahn)",
      "license": "CC-BY-4.0 (http://creativecommons.org/licenses/by/4.0/)",
      "source": "https://sketchfab.com/3d-models/blank-canvas-3032c5504fbf474b9f37be0388c1fd44",
      "title": "Blank Canvas"
    },
    "generator": "Sketchfab-6.79.0",
    "version": "2.0"
  },
  "bufferViews": [
    {
      "buffer": 0,
      "byteLength": 16104,
      "byteOffset": 0,
      "name": "floatBufferViews",
      "target": 34963
    },
    {
      "buffer": 0,
      "byteLength": 6056,
      "byteOffset": 16104,
      "byteStride": 8,
      "name": "floatBufferViews",
      "target": 34962
    },
    {
      "buffer": 0,
      "byteLength": 18168,
      "byteOffset": 22160,
      "byteStride": 12,
      "name": "floatBufferViews",
      "target": 34962
    },
    {
      "buffer": 0,
      "byteLength": 12112,
      "byteOffset": 40328,
      "byteStride": 16,
      "name": "floatBufferViews",
      "target": 34962
    }
  ],
  "buffers": [
    {
      "byteLength": 52440,
      "uri": "scene.bin"
    }
  ],
  "images": [
    {
      "uri": "textures/SMS_Canvas_Material_baseColor.png"
    },
    {
      "uri": "textures/SMS_Canvas_Material_metallicRoughness.png"
    },
    {
      "uri": "textures/SMS_Canvas_Material_normal.png"
    }
  ],
  "materials": [
    {
      "doubleSided": true,
      "name": "SMS_Canvas_Material",
      "normalTexture": {
        "index": 2,
        "scale": 1,
        "texCoord": 0
      },
      "pbrMetallicRoughness": {
        "baseColorFactor": [
          1,
          1,
          1,
          1
        ],
        "baseColorTexture": {
          "index": 0,
          "texCoord": 0
        },
        "metallicFactor": 1,
        "metallicRoughnessTexture": {
          "index": 1,
          "texCoord": 0
        },
        "roughnessFactor": 1
      }
    }
  ],
  "meshes": [
    {
      "primitives": [
        {
          "attributes": {
            "NORMAL": 1,
            "POSITION": 0,
            "TANGENT": 2,
            "TEXCOORD_0": 3
          },
          "indices": 4,
          "material": 0,
          "mode": 4
        }
      ]
    }
  ],
  "nodes": [
    {
      "children": [
        1
      ],
      "name": "RootNode (gltf orientation matrix)",
      "rotation": [
        -0.70710678118654746,
        -0,
        -0,
        0.70710678118654757
      ]
    },
    {
      "children": [
        2
      ],
      "name": "RootNode (model correction matrix)"
    },
    {
      "children": [
        3
      ],
      "name": "SMS Canvas.obj.cleaner.materialmerger.gles"
    },
    {
      "mesh": 0,
      "name": ""
    }
  ],
  "samplers": [
    {
      "magFilter": 9729,
      "minFilter": 9987,
      "wrapS": 10497,
      "wrapT": 10497
    }
  ],
  "scene": 0,
  "scenes": [
    {
      "name": "OSG_Scene",
      "nodes": [
        0
      ]
    }
  ],
  "textures": [
    {
      "sampler": 0,
      "source": 0
    },
    {
      "sampler": 0,
      "source": 1
    },
    {
      "sampler": 0,
      "source": 2
    }
  ]
}

