{
  "accessors": [
    {
      "bufferView": 2,
      "componentType": 5126,
      "count": 15853,
      "max": [
        8.6536264419555664,
        -0.16601181030273438,
        8.6028804779052734
      ],
      "min": [
        -4.4710736274719238,
        -20.117946624755859,
        -7.7537617683410645
      ],
      "type": "VEC3"
    },
    {
      "bufferView": 2,
      "byteOffset": 190236,
      "componentType": 5126,
      "count": 15853,
      "max": [
        0.99999850988388062,
        0.99999964237213135,
        0.99999397993087769
      ],
      "min": [
        -0.99999946355819702,
        -0.99999576807022095,
        -0.99999594688415527
      ],
      "type": "VEC3"
    },
    {
      "bufferView": 3,
      "componentType": 5126,
      "count": 15853,
      "max": [
        0.99986261129379272,
        0.99992948770523071,
        0.99983924627304077,
        1
      ],
      "min": [
        -0.99988383054733276,
        -0.99967741966247559,
        -0.99998778104782104,
        1
      ],
      "type": "VEC4"
    },
    {
      "bufferView": 1,
      "componentType": 5126,
      "count": 15853,
      "max": [
        0.99926090240478516,
        0.9556693434715271
      ],
      "min": [
        0.00074625964043661952,
        0.00082927144831046462
      ],
      "type": "VEC2"
    },
    {
      "bufferView": 0,
      "componentType": 5125,
      "count": 89994,
      "max": [
        15852
      ],
      "min": [
        0
      ],
      "type": "SCALAR"
    }
  ],
  "asset": {
    "extras": {
      "author": "3dhdscan (https://sketchfab.com/3dhdscan)",
      "license": "CC-BY-4.0 (http://creativecommons.org/licenses/by/4.0/)",
      "source": "https://sketchfab.com/models/452a0856801843e0a1ad406a3d58a1b3",
      "title": "Plastic canister for building fluids"
    },
    "generator": "Sketchfab-3.18.7",
    "version": "2.0"
  },
  "bufferViews": [
    {
      "buffer": 0,
      "byteLength": 359976,
      "byteOffset": 0,
      "name": "floatBufferViews",
      "target": 34963
    },
    {
      "buffer": 0,
      "byteLength": 126824,
      "byteOffset": 359976,
      "byteStride": 8,
      "name": "floatBufferViews",
      "target": 34962
    },
    {
      "buffer": 0,
      "byteLength": 380472,
      "byteOffset": 486800,
      "byteStride": 12,
      "name": "floatBufferViews",
      "target": 34962
    },
    {
      "buffer": 0,
      "byteLength": 253648,
      "byteOffset": 867272,
      "byteStride": 16,
      "name": "floatBufferViews",
      "target": 34962
    }
  ],
  "buffers": [
    {
      "byteLength": 1120920,
      "uri": "scene.bin"
    }
  ],
  "images": [
    {
      "uri": "textures/plastovy_kanystr_normal.jpeg"
    },
    {
      "uri": "textures/plastovy_kanystr_baseColor.jpeg"
    }
  ],
  "materials": [
    {
      "doubleSided": true,
      "emissiveFactor": [
        0,
        0,
        0
      ],
      "name": "plastovy_kanystr",
      "normalTexture": {
        "index": 0,
        "scale": 0.45903201220000001,
        "texCoord": 0
      },
      "pbrMetallicRoughness": {
        "baseColorFactor": [
          1,
          1,
          1,
          1
        ],
        "baseColorTexture": {
          "index": 1,
          "texCoord": 0
        },
        "metallicFactor": 0,
        "roughnessFactor": 0.59999999999999998
      }
    }
  ],
  "meshes": [
    {
      "name": "plastovy_kanystr_plastovy_kanystr_0",
      "primitives": [
        {
          "attributes": {
            "NORMAL": 1,
            "POSITION": 0,
            "TANGENT": 2,
            "TEXCOORD_0": 3
          },
          "indices": 4,
          "material": 0,
          "mode": 4
        }
      ]
    }
  ],
  "nodes": [
    {
      "children": [
        1
      ],
      "name": "RootNode (gltf orientation matrix)",
      "rotation": [
        -0.70710678118654746,
        -0,
        -0,
        0.70710678118654757
      ]
    },
    {
      "children": [
        2
      ],
      "name": "RootNode (model correction matrix)"
    },
    {
      "children": [
        3
      ],
      "matrix": [
        1,
        0,
        0,
        0,
        0,
        0,
        1,
        0,
        0,
        -1,
        0,
        0,
        0,
        0,
        0,
        1
      ],
      "name": "plastovy_kanystr.FBX"
    },
    {
      "children": [
        4
      ],
      "name": "RootNode"
    },
    {
      "children": [
        5
      ],
      "matrix": [
        0.99329211035539144,
        0.0029754594945645627,
        0.11559381534722828,
        0,
        -0.0018035891979650961,
        0.99994593201784643,
        -0.010241098913958108,
        0,
        -0.11561803739788133,
        0.0099639189958919232,
        0.9932437715618988,
        0,
        -2.1590743064880371,
        0,
        0,
        1
      ],
      "name": "plastovy_kanystr"
    },
    {
      "children": [
        6
      ],
      "matrix": [
        1,
        0,
        -0,
        0,
        0,
        1,
        0,
        0,
        0,
        0,
        1,
        0,
        -0.0033193193376064301,
        10.266503334045399,
        -0.558077752590179,
        1
      ],
      "name": ""
    },
    {
      "mesh": 0,
      "name": "plastovy_kanystr_plastovy_kanystr_0"
    }
  ],
  "samplers": [
    {
      "magFilter": 9729,
      "minFilter": 9987,
      "wrapS": 10497,
      "wrapT": 10497
    }
  ],
  "scene": 0,
  "scenes": [
    {
      "name": "OSG_Scene",
      "nodes": [
        0
      ]
    }
  ],
  "textures": [
    {
      "sampler": 0,
      "source": 0
    },
    {
      "sampler": 0,
      "source": 1
    }
  ]
}

